<svg class="MuiSvgIcon-root MuiSvgIcon-fontSizeSmall" focusable="false" viewBox="0 0 20 20" aria-hidden="true"><path d="M 13.731 10.015 C 15.468 10.015 16.872 8.497 16.872 6.618 C 16.872 4.773 15.461 3.292 13.731 3.292 C 12.007 3.292 10.588 4.788 10.588 6.624 C 10.595 8.497 11.993 10.015 13.731 10.015 Z M 5.468 10.178 C 6.979 10.178 8.206 8.837 8.206 7.185 C 8.206 5.575 6.979 4.263 5.467 4.263 C 3.965 4.263 2.723 5.589 2.731 7.192 C 2.731 8.844 3.958 10.178 5.468 10.178 Z M 13.731 8.646 C 12.794 8.646 12.007 7.767 12.007 6.624 C 12 5.518 12.794 4.66 13.73 4.66 C 14.674 4.66 15.454 5.511 15.454 6.618 C 15.454 7.752 14.674 8.646 13.731 8.646 Z M 5.468 8.83 C 4.716 8.83 4.078 8.107 4.078 7.192 C 4.071 6.32 4.716 5.611 5.468 5.611 C 6.227 5.611 6.866 6.306 6.866 7.185 C 6.866 8.108 6.227 8.83 5.468 8.83 Z M 1.596 16.709 L 7.063 16.709 C 6.638 16.454 6.376 15.872 6.426 15.362 L 1.617 15.362 C 1.49 15.362 1.44 15.306 1.44 15.192 C 1.44 13.674 3.27 12.2 5.461 12.2 C 6.177 12.2 6.972 12.383 7.526 12.681 C 7.774 12.284 8.092 11.951 8.539 11.667 C 7.66 11.149 6.518 10.858 5.461 10.858 C 2.44 10.858 0 12.993 0 15.348 C 0 16.24 0.532 16.709 1.596 16.709 Z M 9.333 16.702 L 18.12 16.702 C 19.383 16.702 20 16.291 20 15.412 C 20 13.391 17.497 10.865 13.731 10.865 C 9.965 10.865 7.454 13.391 7.454 15.412 C 7.454 16.291 8.071 16.702 9.333 16.702 Z M 9.205 15.333 C 9.05 15.333 8.993 15.284 8.993 15.164 C 8.993 14.142 10.71 12.235 13.731 12.235 C 16.744 12.235 18.461 14.142 18.461 15.164 C 18.461 15.284 18.404 15.334 18.255 15.334 L 9.205 15.334 Z"></path></svg>